<svg id="Layer_1" data-name="Layer 1" xmlns="http://www.w3.org/2000/svg" viewBox="0 0 148 45.39"><defs><style>.cls-1{fill:#f1f0f0;}</style></defs><path class="cls-1" d="M1026.46,609h2.67l-.37,1.32h-4.07l.33-.7v-5.33l-.33-.7h1.77Zm3.47,1.32h4V609h-2.52v-1.47h1.95l.36-1.27h-2.31v-1.36h2.52v-1.31h-4Zm8.49-6.72,2.68,6.72h-1.51l-.51-1.31h-2.67l-.51,1.31h-1.47l2.37-5.87-.44-.86Zm.18,4.12-.83-2.26-.87,2.26Zm6-1.14-.59,1.21h2.37a1.61,1.61,0,0,1-.62.94,2,2,0,0,1-2,.18,1.93,1.93,0,0,1-.65-.46,2.14,2.14,0,0,1-.43-.67,2.35,2.35,0,0,1-.16-.83,2.12,2.12,0,0,1,.17-.83,2,2,0,0,1,.44-.67,1.85,1.85,0,0,1,.65-.45,2,2,0,0,1,.8-.16,2.16,2.16,0,0,1,1,.26,1.74,1.74,0,0,1,.7.75l1.31-.62a3,3,0,0,0-1.21-1.28,3.5,3.5,0,0,0-1.81-.47,3.41,3.41,0,0,0-1.37.26,3.58,3.58,0,0,0-1.87,1.84,3.36,3.36,0,0,0-.29,1.36,3.5,3.5,0,0,0,.27,1.35,3.57,3.57,0,0,0,.73,1.11,3.66,3.66,0,0,0,1.11.76,3.57,3.57,0,0,0,1.37.28,3.53,3.53,0,0,0,1.33-.25,3.26,3.26,0,0,0,2-2.67,7.37,7.37,0,0,0,0-.94Zm8.07,1a1.66,1.66,0,0,1-.31,1.07,1.1,1.1,0,0,1-.92.4,1.08,1.08,0,0,1-.92-.4,1.66,1.66,0,0,1-.32-1.07v-4h-1.46v4.06a3.23,3.23,0,0,0,.19,1.15,2.5,2.5,0,0,0,.53.88,2.29,2.29,0,0,0,.85.56,3.37,3.37,0,0,0,2.26,0,2.29,2.29,0,0,0,.85-.56,2.72,2.72,0,0,0,.53-.88,3.47,3.47,0,0,0,.19-1.15v-4.06h-1.46Zm2.64,2.75h4V609h-2.52v-1.47h2l.36-1.27h-2.31v-1.36h2.52v-1.31h-4Zm9.1-3.36a1.58,1.58,0,0,1-.26.87,1.57,1.57,0,0,1-2.42.24,1.62,1.62,0,0,1-.42-.81,1.54,1.54,0,0,1,.08-.9,1.61,1.61,0,0,1,.58-.71,1.58,1.58,0,0,1,.87-.26,1.57,1.57,0,0,1,1.57,1.57Zm-.73,0a.86.86,0,0,0-.14-.47.89.89,0,0,0-.38-.31.87.87,0,0,0-.48,0,.76.76,0,0,0-.43.23.84.84,0,0,0-.18.92.8.8,0,0,0,.31.37.87.87,0,0,0,.79.08,1,1,0,0,0,.27-.19.8.8,0,0,0,.18-.27.87.87,0,0,0,.06-.32Zm1.32,1.51h.74v-1h.77l.18-.67h-1v-.65h1.09v-.69H1065Zm5.35-4.87h-1.78l.34.69v5.33l-.34.7h4.07L1073,609h-2.66Zm3.47,6.72h4V609h-2.52v-1.47h2l.35-1.27h-2.3v-1.36h2.52v-1.31h-4Zm8-3.74-.59,1.21h2.37a1.61,1.61,0,0,1-.62.94,2,2,0,0,1-2,.18,1.93,1.93,0,0,1-.65-.46,2.14,2.14,0,0,1-.43-.67,2.35,2.35,0,0,1-.16-.83,2.32,2.32,0,0,1,.17-.83,2,2,0,0,1,.44-.67,1.85,1.85,0,0,1,.65-.45,2,2,0,0,1,.8-.16,2.23,2.23,0,0,1,1,.26,1.78,1.78,0,0,1,.69.75l1.31-.62a3,3,0,0,0-1.21-1.28,3.5,3.5,0,0,0-1.81-.47,3.38,3.38,0,0,0-1.37.26,3.56,3.56,0,0,0-1.88,1.84,3.36,3.36,0,0,0-.29,1.36,3.5,3.5,0,0,0,.27,1.35,3.78,3.78,0,0,0,.74,1.11,3.43,3.43,0,0,0,1.11.76,3.57,3.57,0,0,0,1.37.28,3.61,3.61,0,0,0,1.33-.25,3.22,3.22,0,0,0,1-.7,3.12,3.12,0,0,0,.7-1,3.19,3.19,0,0,0,.23-.92,7.38,7.38,0,0,0,0-.94Zm4.22,3.74h4V609h-2.52v-1.47h1.94l.36-1.27h-2.3v-1.36H1090v-1.31h-4Zm9.61-2.3-3.12-4.42h-1.8l.32.62v6.1h1.39V606l3.15,4.37h1.46v-6.72h-1.4Zm8.07-2.37A3.35,3.35,0,0,1,1104,607a3.39,3.39,0,0,1-.26,1.3,3.42,3.42,0,0,1-.75,1.09,3.29,3.29,0,0,1-1.09.7,3.34,3.34,0,0,1-1.32.26h-2.27v-6.72h2.28a4.25,4.25,0,0,1,1.32.27,3.55,3.55,0,0,1,1.08.71,3.6,3.6,0,0,1,.74,1.07Zm-1.22,1.32a1.89,1.89,0,0,0-.14-.78,2,2,0,0,0-1-1.07,1.91,1.91,0,0,0-.78-.16h-.8v4h.8a1.87,1.87,0,0,0,.77-.16,1.81,1.81,0,0,0,.63-.43,1.93,1.93,0,0,0,.42-.63,1.87,1.87,0,0,0,.15-.78Zm5.11-.64-.9-.17c-.41-.08-.63-.31-.63-.65s.47-.73.92-.73a1.07,1.07,0,0,1,1.09.81l1.25-.61a2.46,2.46,0,0,0-4.71.63,2,2,0,0,0,1.79,2l.9.18c.45.09.72.34.72.68s-.37.7-1,.71a1.41,1.41,0,0,1-1.4-1.06l-1.21.67a2.52,2.52,0,0,0,2.59,1.7,2.58,2.58,0,0,0,1.82-.65,2.18,2.18,0,0,0,.46-.66,2.15,2.15,0,0,0,.17-.79,2.09,2.09,0,0,0-1.9-2ZM1002.87,565.3l9.57,27.2h-4.61c-2-4.3-3.76-5.84-6.22-5.84s-4.21,1.54-6.2,5.84h-4.26l9.57-27.2Zm2.53,20.7-3.75-11-3.82,11a11.08,11.08,0,0,1,3.82-.74A10.74,10.74,0,0,1,1005.4,586Zm19.62,6.5h-4.59V565.3h5.09c7.13,0,10.82,4.05,10.82,9.85a9.8,9.8,0,0,1-4.19,8.14l5,9.21h-5.26l-3.91-7.45a11.38,11.38,0,0,1-2.47.25h-.5Zm0-11.51h1a5.25,5.25,0,0,0,5.63-5.63c0-3.44-2.16-5.7-5.63-5.7h-1Zm24.19-2.15c0-5.66,3.73-9.25,9.07-9.25a8.62,8.62,0,0,1,2,.22l.22-4.55a11.3,11.3,0,0,0-2-.18,13.52,13.52,0,0,0-14,14c0,8.49,5.67,13.65,13.41,13.65a10.71,10.71,0,0,0,2.83-.28v-4.55a8.51,8.51,0,0,1-2.3.32c-5.51,0-9.21-3.55-9.21-9.35Zm22.23,13.66h-4.27l9.57-27.21h2.15l9.57,27.21h-4.61c-2-4.3-3.76-5.84-6.22-5.84s-4.2,1.54-6.19,5.84Zm2.42-6.5a11,11,0,0,1,3.81-.74,10.64,10.64,0,0,1,3.74.74l-3.74-11Zm35.25-4.75-10.5-16h-2.15v27.2h4.26V576.41l10.72,16.09h1.93V565.3h-4.26Zm20,7.09v-6.91H1137V577.3h-7.88v-7.84h9.39V565.3h-14v27.2h14.66v-4.16Z" transform="translate(-991.15 -565.08)"/></svg>