<svg width="10" height="10" viewBox="0 0 10 10" fill="none" xmlns="http://www.w3.org/2000/svg">
<path d="M2.14044 0.0329726C1.65453 0.118525 1.20327 0.341401 0.839995 0.675259C0.476722 1.00912 0.216623 1.44 0.0904399 1.91697C0.000439852 2.26697 -0.00656028 2.47197 0.00343972 5.18697C0.0104397 7.67897 0.0124397 7.73697 0.0534397 7.92997C0.28344 8.96697 1.02044 9.70597 2.06844 9.94997C2.20444 9.98097 2.37844 9.98797 3.49844 9.99397C4.65844 10.002 4.77844 9.99997 4.80844 9.96897C4.84044 9.93897 4.84244 9.53897 4.84244 5.00897C4.84244 1.64897 4.83644 0.0689724 4.82244 0.0389724C4.80144 0.00197239 4.76544 -0.00102755 3.55244 0.00197245C2.56744 0.00397245 2.27144 0.00997242 2.14044 0.0319724V0.0329726ZM4.01444 9.19697L3.17144 9.18697C2.39544 9.17797 2.31144 9.17397 2.15744 9.13497C1.83485 9.05539 1.54146 8.88592 1.31134 8.64625C1.08123 8.40657 0.923833 8.10653 0.85744 7.78097C0.81144 7.57097 0.81144 2.42097 0.85444 2.21497C0.914632 1.92987 1.04397 1.66394 1.23107 1.44057C1.41818 1.21719 1.65731 1.04322 1.92744 0.933973C2.20044 0.823973 2.32744 0.810973 3.21344 0.808973L4.01344 0.806973V9.19697H4.01444Z" fill="#FCFCFC"/>
<path d="M2.31798 2.071C2.18798 2.095 1.98798 2.195 1.88298 2.288C1.66598 2.476 1.55798 2.744 1.57498 3.058C1.5717 3.17697 1.6011 3.29457 1.65998 3.398C1.75698 3.598 1.90398 3.746 2.10498 3.845C2.24298 3.913 2.27898 3.922 2.45898 3.928C2.62198 3.934 2.67998 3.928 2.78998 3.891C3.23998 3.739 3.50998 3.303 3.43398 2.855C3.41387 2.72944 3.36879 2.60919 3.3014 2.50136C3.234 2.39353 3.14567 2.30031 3.04162 2.22722C2.93757 2.15412 2.81992 2.10264 2.69563 2.0758C2.57133 2.04897 2.44292 2.04734 2.31798 2.071V2.071ZM5.84998 0.0139999C5.84198 0.0199999 5.83598 2.264 5.83598 5.002C5.83598 9.518 5.83798 9.975 5.86898 9.988C5.92498 10.008 7.53098 10 7.72998 9.979C8.21346 9.92167 8.67091 9.72897 9.04969 9.42309C9.42846 9.1172 9.71315 8.71057 9.87098 8.25C10.001 7.861 9.99698 7.965 9.99698 4.99C9.99698 2.614 9.99298 2.26 9.96398 2.11C9.87013 1.58835 9.61729 1.10847 9.2401 0.736106C8.8629 0.363744 8.3798 0.117113 7.85698 0.03C7.71198 0.00599997 7.48798 0 6.76698 0C6.27098 0 5.85698 0.00599994 5.84998 0.0139999V0.0139999ZM8.06098 4.524C8.38398 4.608 8.64898 4.854 8.75698 5.169C8.82598 5.364 8.82298 5.649 8.75498 5.828C8.69955 5.98299 8.60751 6.1223 8.48668 6.23407C8.36585 6.34585 8.21981 6.42679 8.06098 6.47C7.80799 6.53198 7.54087 6.49483 7.3144 6.36616C7.08793 6.23749 6.91926 6.02705 6.84298 5.778C6.79697 5.58571 6.79972 5.38496 6.85098 5.194C6.92855 4.94843 7.09744 4.74201 7.32278 4.61734C7.54812 4.49266 7.81272 4.45925 8.06198 4.524H8.06098Z" fill="#FCFCFC"/>
</svg>
