<svg width="9" height="10" viewBox="0 0 9 10" fill="none" xmlns="http://www.w3.org/2000/svg">
<path d="M7.955 7.794C7.809 8.143 7.636 8.464 7.436 8.76C7.163 9.163 6.94 9.442 6.768 9.597C6.501 9.852 6.215 9.982 5.91 9.989C5.69 9.989 5.425 9.924 5.116 9.793C4.8476 9.67138 4.55757 9.60473 4.263 9.597C3.99 9.597 3.698 9.662 3.385 9.793C3.071 9.924 2.819 9.993 2.626 10C2.332 10.013 2.04 9.879 1.748 9.597C1.561 9.429 1.328 9.14 1.048 8.731C0.73232 8.26051 0.483919 7.74823 0.31 7.209C0.11044 6.62512 0.00577854 6.01302 0 5.396C0 4.726 0.14 4.148 0.42 3.663C0.64 3.274 0.933 2.967 1.299 2.743C1.665 2.518 2.06 2.403 2.487 2.395C2.72 2.395 3.025 2.469 3.405 2.616C3.784 2.764 4.027 2.839 4.135 2.839C4.214 2.839 4.485 2.751 4.942 2.577C5.375 2.415 5.741 2.348 6.04 2.374C6.851 2.442 7.461 2.774 7.866 3.371C7.141 3.827 6.782 4.466 6.789 5.285C6.795 5.923 7.019 6.454 7.457 6.875C7.657 7.071 7.878 7.222 8.125 7.329C8.071 7.491 8.015 7.646 7.955 7.794V7.794ZM6.093 0.201C6.093 0.701 5.917 1.168 5.566 1.601C5.142 2.114 4.629 2.411 4.073 2.364C4.06556 2.30094 4.06188 2.2375 4.062 2.174C4.062 1.694 4.264 1.181 4.622 0.76C4.8 0.547 5.028 0.37 5.303 0.23C5.578 0.09 5.839 0.013 6.083 0C6.091 0.068 6.093 0.135 6.093 0.201V0.201Z" fill="#FCFCFC"/>
</svg>
