<svg id="Layer_1" data-name="Layer 1" xmlns="http://www.w3.org/2000/svg" viewBox="0 0 145.69 67.65"><defs><style>.cls-1{fill:#f1f0f0;}</style></defs><path class="cls-1" d="M1036.74,478.12a6.12,6.12,0,0,0-3.28-1.7,48.18,48.18,0,0,0-7.35-.36q-4.87,0-6.95.23a6.14,6.14,0,0,0-5.12,3.49c-.58,1.11-.88,3.54-.87,7.29v47a15.28,15.28,0,0,0,.87,5.82,5.69,5.69,0,0,0,3,3q1.85.88,8.55.87a39.32,39.32,0,0,0,8.39-.55q3.52-.78,4.48-4.76c.27-.95.4-11.74.4-18V499.18c0-5,0-15.3-.16-16.46A7.54,7.54,0,0,0,1036.74,478.12Zm-9.19,55.73h-3.19V485.93h3.19Z" transform="translate(-992.3 -476.06)"/><path class="cls-1" d="M1003.57,476.3H992.3v63a4.23,4.23,0,0,0,2.62,3.9,4.34,4.34,0,0,0,1.63.32h14.2v-9.63h-7.18Z" transform="translate(-992.3 -476.06)"/><path class="cls-1" d="M1053.36,476.3h-11.27v63a4.21,4.21,0,0,0,1.25,3,4.25,4.25,0,0,0,3,1.23h14.2v-9.63h-7.18Z" transform="translate(-992.3 -476.06)"/><path class="cls-1" d="M1080,485.93h19.3V476.3h-15a14.1,14.1,0,0,0-9.93,4.08,13.87,13.87,0,0,0-4.11,9.84v14.85H1080Zm17.3,24L1080,527V514.7h-9.72v28.78h29v-9.63h-12.43l17.29-17.15Zm31,24H1109v9.63h15a14.09,14.09,0,0,0,9.92-4.08,13.83,13.83,0,0,0,4.12-9.84V514.7h-9.71ZM1109,476.3v9.63h12.43l-17.29,17.15,6.87,6.81,17.29-17.14v12.32H1138V476.3Z" transform="translate(-992.3 -476.06)"/></svg>