<svg width="14" height="10" viewBox="0 0 14 10" fill="none" xmlns="http://www.w3.org/2000/svg">
<path d="M12.207 8.2C12.207 8.2 12.839 7.973 13.097 7.654C13.355 7.334 13.241 6.871 12.225 6.556C11.325 6.221 10.176 6.106 9.23895 6.207C8.30195 6.309 7.63495 6.54 7.63495 6.54L7.50195 6.584V7.853L9.80895 7.056C10.202 6.917 10.779 6.888 11.099 6.991C11.418 7.093 11.357 7.288 10.964 7.426L7.50195 8.636V9.858L12.207 8.2Z" fill="#FCFCFC"/>
<path d="M7.94989 2.448V5.573C9.29189 6.208 10.3469 5.573 10.3469 3.895C10.3469 2.175 9.72989 1.411 7.90689 0.797C7.18989 0.56 5.85689 0.167 4.94189 0V9.33L7.09389 10V2.175C7.09389 1.808 7.26089 1.563 7.52989 1.648C7.87989 1.743 7.94989 2.081 7.94989 2.448V2.448ZM0.250892 7.275C-0.224108 7.62 -0.0501084 8.22 0.991892 8.508C2.06194 8.85659 3.19941 8.94638 4.31089 8.77L4.52289 8.735V7.637L3.45789 8.017C3.06489 8.155 2.48789 8.184 2.16789 8.082C1.84989 7.979 1.90989 7.784 2.30289 7.646L4.52289 6.866V5.64L1.43689 6.716C1.43689 6.716 0.690892 6.956 0.250892 7.275V7.275Z" fill="#FCFCFC"/>
</svg>
