<svg width="10" height="10" viewBox="0 0 10 10" fill="none" xmlns="http://www.w3.org/2000/svg">
<path d="M4.50146 9.98015C3.70929 9.89875 2.9481 9.629 2.28143 9.19342C1.71976 8.82673 1.59309 8.67671 1.59309 8.37669C1.59309 7.77331 2.25643 6.71656 3.39228 5.51147C4.03729 4.82809 4.93563 4.02552 5.0323 4.04719C5.22146 4.0897 6.73148 5.56148 7.29649 6.25486C8.18983 7.35078 8.6015 8.24752 8.39233 8.64755C8.234 8.95174 7.24899 9.54595 6.52564 9.7743C5.86964 9.96846 5.18312 10.0383 4.50146 9.98015V9.98015ZM0.834753 7.74914C0.368081 7.03409 0.133079 6.32987 0.0189111 5.31062C-0.0185893 4.97476 -0.0052558 4.78225 0.103912 4.0922C0.24058 3.2313 0.730585 2.23622 1.32059 1.62367C1.57059 1.36282 1.59309 1.35698 1.89893 1.45949C2.2706 1.5845 2.66727 1.85786 3.28228 2.41373L3.64061 2.73876L3.44478 2.97878C2.5356 4.09553 1.57476 5.67898 1.21392 6.65906C1.01725 7.1916 0.938087 7.72581 1.02225 7.94833C1.07976 8.09834 1.02725 8.0425 0.835586 7.74831L0.834753 7.74914ZM9.02317 7.87082C9.06984 7.6458 9.0115 7.23327 8.87484 6.81657C8.579 5.914 7.58982 4.23637 6.68231 3.09545L6.39564 2.73626L6.70565 2.4529C7.10898 2.08121 7.38899 1.85952 7.69232 1.67118C7.93066 1.52283 8.27233 1.39115 8.41816 1.39115C8.509 1.39115 8.8265 1.72118 9.08484 2.08121C9.4931 2.66368 9.77836 3.32327 9.92318 4.01969C10.019 4.47472 10.0265 5.44897 9.93818 5.90317C9.85493 6.30968 9.72924 6.70633 9.56318 7.08659C9.45151 7.33161 9.17317 7.80832 9.0515 7.96333C8.98817 8.04333 8.98817 8.0425 9.02317 7.87082V7.87082ZM4.58396 1.22031C4.16479 1.00779 3.51895 0.77944 3.16144 0.717769C3.00425 0.694427 2.84526 0.6855 2.68644 0.6911C2.39227 0.706101 2.4056 0.6911 2.87811 0.467749C3.24873 0.289503 3.64048 0.159006 4.04395 0.0793861C4.54396 -0.025622 5.48563 -0.0264554 5.97731 0.0768859C6.50981 0.189395 7.13565 0.421912 7.48899 0.639429L7.59399 0.703601L7.35232 0.691933C6.87481 0.666931 6.17731 0.861113 5.42897 1.22531C5.20396 1.33448 5.0073 1.42199 4.99313 1.41949C4.85479 1.35717 4.71834 1.29074 4.58396 1.22031V1.22031Z" fill="#FCFCFC"/>
</svg>
