<svg viewBox="0 0 17 16" fill="none"><path d="M12.437 10.793c-.146.349-.319.67-.519.966-.273.403-.496.682-.668.837-.267.255-.553.385-.858.392-.22 0-.485-.065-.794-.196a2.207 2.207 0 0 0-.853-.196c-.273 0-.565.065-.878.196-.314.131-.566.2-.759.207-.294.013-.586-.121-.878-.403-.187-.168-.42-.457-.7-.866a6.083 6.083 0 0 1-.738-1.522 5.773 5.773 0 0 1-.31-1.813c0-.67.14-1.248.42-1.733.22-.389.513-.696.879-.92.366-.225.761-.34 1.188-.348.233 0 .538.074.918.221.379.148.622.223.73.223.079 0 .35-.088.807-.262.433-.162.799-.229 1.098-.203.811.068 1.421.4 1.826.997-.725.456-1.084 1.095-1.077 1.914.006.638.23 1.169.668 1.59.2.196.421.347.668.454-.054.162-.11.317-.17.465zM10.575 3.2c0 .5-.176.967-.527 1.4-.424.513-.937.81-1.493.763a1.595 1.595 0 0 1-.011-.19c0-.48.202-.993.56-1.414.178-.213.406-.39.681-.53s.536-.217.78-.23c.008.068.01.135.01.201z" fill="#FCFCFC"></path></svg>