<svg width="20" height="20" viewBox="0 0 20 20" fill="none" xmlns="http://www.w3.org/2000/svg">
<path fill-rule="evenodd" clip-rule="evenodd" d="M20 10C20 15.5228 15.5228 20 10 20C4.47715 20 0 15.5228 0 10C0 4.47715 4.47715 0 10 0C15.5228 0 20 4.47715 20 10ZM12.909 1.97188C14.9416 2.70856 16.6149 4.19525 17.5944 6.09756H14.4926C14.1515 4.4491 13.6007 3.02704 12.909 1.97188ZM18.5366 10C18.5366 9.24109 18.4375 8.50531 18.2517 7.80488H14.7602C14.8373 8.51127 14.878 9.24588 14.878 10C14.878 10.7541 14.8373 11.4887 14.7602 12.1951H18.2517C18.4375 11.4947 18.5366 10.7589 18.5366 10ZM17.5944 13.9024C16.6149 15.8048 14.9416 17.2914 12.909 18.0281C13.6007 16.973 14.1515 15.5509 14.4926 13.9024H17.5944ZM13.3006 12.1951C13.375 11.4947 13.4146 10.7589 13.4146 10C13.4146 9.24109 13.375 8.50531 13.3006 7.80488H6.69928C6.62494 8.50531 6.58533 9.24109 6.58533 10C6.58533 10.7589 6.62494 11.4947 6.69928 12.1951H13.3006ZM6.96221 13.9024H13.0377C12.4709 16.6544 11.3234 18.5366 9.99996 18.5366C8.67656 18.5366 7.529 16.6544 6.96221 13.9024ZM5.23985 12.1951C5.16267 11.4887 5.12195 10.7541 5.12195 10C5.12195 9.24588 5.16267 8.51126 5.23985 7.80488H1.74825C1.56241 8.50531 1.46338 9.24109 1.46338 10C1.46338 10.7589 1.56241 11.4947 1.74825 12.1951H5.23985ZM2.40557 13.9024H5.50736C5.84852 15.5509 6.39926 16.973 7.09107 18.0282C5.05837 17.2915 3.38507 15.8048 2.40557 13.9024ZM9.99996 1.46341C11.3234 1.46341 12.4709 3.34557 13.0377 6.09756H6.96221C7.529 3.34557 8.67656 1.46341 9.99996 1.46341ZM7.09106 1.97184C6.39926 3.02701 5.84851 4.44908 5.50736 6.09756H2.40557C3.38507 4.19522 5.05837 2.70852 7.09106 1.97184Z" fill="#FCFCFC"/>
</svg>
