<svg width="162" height="41" viewBox="0 0 162 41" fill="none" xmlns="http://www.w3.org/2000/svg">
<path d="M24.19 0.0786743L0 11.2787L6.03 34.2187L10.62 33.6587L9.35 19.2387L10.86 18.5687L13.46 33.3087L21.3 32.3487L19.91 16.4287L21.4 15.7587L24.26 31.9787L32.19 31.0087L30.66 13.5587L32.17 12.8887L35.3 30.6287L43.15 29.6587V4.82867L24.19 0.0786743Z" fill="#D13639"/>
<path d="M24.7598 34.8687L25.1598 37.1287L43.1498 40.1287V32.6087L24.7698 34.8687H24.7598Z" fill="#D13639"/>
<path d="M60.16 30.1587V33.2587H64C64.002 33.8861 63.84 34.5032 63.53 35.0487C63.2106 35.5946 62.7328 36.0305 62.16 36.2987C61.4756 36.6071 60.7305 36.7575 59.98 36.7387C59.1125 36.7726 58.256 36.5349 57.53 36.0587C56.8171 35.5629 56.2673 34.8669 55.95 34.0587C55.5539 33.0502 55.3668 31.9717 55.4 30.8887C55.3725 29.8143 55.5772 28.7467 56 27.7587C56.3205 26.9494 56.8738 26.2534 57.59 25.7587C58.3037 25.2965 59.1399 25.0596 59.99 25.0787C60.436 25.0705 60.8807 25.1278 61.31 25.2487C61.6899 25.3569 62.0484 25.5294 62.37 25.7587C62.6716 25.9853 62.935 26.2587 63.15 26.5687C63.3617 26.9083 63.5265 27.2749 63.64 27.6587H67.83C67.7303 26.7804 67.4549 25.9312 67.0203 25.1616C66.5856 24.3919 66.0006 23.7176 65.3 23.1787C64.5669 22.6173 63.7458 22.1814 62.87 21.8887C61.9008 21.5767 60.8881 21.4214 59.87 21.4287C58.6961 21.4193 57.5315 21.6366 56.44 22.0687C55.3926 22.4859 54.4453 23.1197 53.66 23.9287C52.8336 24.7849 52.1994 25.8077 51.8 26.9287C51.3289 28.2085 51.1016 29.5652 51.13 30.9287C51.0886 32.6607 51.4696 34.3768 52.24 35.9287C52.9379 37.2918 54.0189 38.4214 55.35 39.1787C56.692 39.9018 58.1859 40.2977 59.7099 40.3342C61.2338 40.3707 62.7449 40.0467 64.12 39.3887C65.3119 38.8104 66.3119 37.9007 67 36.7687C67.7074 35.4778 68.0529 34.0197 68 32.5487V30.1587H60.16Z" fill="#D13639"/>
<path d="M112.82 40.1586V21.6786H125.49V25.0986H117V29.2086H123.86V32.6287H117V36.7387H125.51V40.1586H112.82Z" fill="#D13639"/>
<path d="M137.78 27.1087C137.759 26.7907 137.671 26.4809 137.521 26.1998C137.371 25.9187 137.163 25.6729 136.91 25.4787C136.281 25.0613 135.534 24.8579 134.78 24.8987C134.259 24.8782 133.739 24.9598 133.25 25.1387C132.88 25.2745 132.555 25.5098 132.31 25.8187C132.093 26.1067 131.977 26.4581 131.98 26.8187C131.969 27.1021 132.038 27.383 132.18 27.6287C132.317 27.8792 132.522 28.0869 132.77 28.2287C133.049 28.4148 133.352 28.5628 133.67 28.6687C134.042 28.801 134.423 28.9079 134.81 28.9887L136.43 29.3587C137.226 29.5378 138.002 29.7923 138.75 30.1187C139.392 30.4092 139.986 30.7971 140.51 31.2687C140.987 31.7055 141.369 32.2367 141.63 32.8287C141.959 33.6385 142.088 34.5158 142.006 35.3861C141.925 36.2565 141.634 37.0943 141.16 37.8287C140.53 38.6929 139.666 39.3591 138.67 39.7487C137.428 40.233 136.102 40.4642 134.77 40.4287C133.404 40.4618 132.045 40.2274 130.77 39.7387C129.704 39.3263 128.787 38.6013 128.14 37.6587C127.469 36.631 127.121 35.426 127.14 34.1987H131.14C131.143 34.7337 131.311 35.2546 131.621 35.6911C131.93 36.1275 132.366 36.4583 132.87 36.6387C133.433 36.8584 134.036 36.9605 134.64 36.9387C135.195 36.9576 135.748 36.8693 136.27 36.6787C136.685 36.5345 137.052 36.2784 137.33 35.9387C137.573 35.6261 137.709 35.2442 137.72 34.8487C137.722 34.485 137.598 34.1318 137.37 33.8487C137.092 33.5472 136.75 33.3115 136.37 33.1587C135.825 32.9385 135.263 32.7613 134.69 32.6287L132.69 32.1587C131.331 31.8814 130.063 31.2696 129 30.3787C128.543 29.966 128.184 29.4565 127.948 28.8873C127.713 28.3182 127.608 27.7037 127.64 27.0887C127.6 26.0152 127.921 24.9593 128.55 24.0887C129.197 23.2057 130.071 22.5146 131.08 22.0887C132.244 21.5984 133.497 21.3565 134.76 21.3787C136.014 21.3479 137.259 21.5902 138.41 22.0887C139.389 22.5177 140.231 23.2101 140.84 24.0887C141.426 24.9785 141.732 26.0233 141.72 27.0887L137.78 27.1087Z" fill="#D13639"/>
<path d="M109.85 40.1586H105.71V26.1087H105.29L101.12 40.1586H96.99L92.93 26.1087H92.4V40.1586H88.27V21.6786H95.29L98.84 34.0686H99.27L102.81 21.6786H109.85V40.1586Z" fill="#D13639"/>
<path d="M81.7599 40.1587H86.2399L79.9999 21.6887H74.3599L68.1499 40.1587H72.6299L73.8399 36.1587H80.5599L81.7599 40.1587ZM74.7599 32.8887L76.7599 26.1087H77.5199L79.5199 32.8887H74.7599Z" fill="#D13639"/>
<path d="M143 23.6387C142.735 23.6387 142.48 23.5333 142.293 23.3458C142.105 23.1582 142 22.9039 142 22.6387C142.004 22.5255 142.028 22.4139 142.07 22.3087C142.121 22.1937 142.192 22.0887 142.28 21.9987C142.369 21.9098 142.474 21.8385 142.59 21.7887C142.833 21.6886 143.107 21.6886 143.35 21.7887C143.583 21.8897 143.769 22.0756 143.87 22.3087C143.924 22.428 143.952 22.5576 143.952 22.6887C143.952 22.8197 143.924 22.9493 143.87 23.0687C143.769 23.3018 143.583 23.4877 143.35 23.5887C143.237 23.626 143.119 23.6429 143 23.6387ZM143 23.3687C143.126 23.3685 143.249 23.3376 143.36 23.2787C143.518 23.1901 143.635 23.043 143.686 22.869C143.736 22.695 143.716 22.5081 143.63 22.3487C143.567 22.2326 143.474 22.1359 143.36 22.0687C143.283 22.0123 143.196 21.9722 143.104 21.9507C143.011 21.9292 142.915 21.9268 142.821 21.9437C142.728 21.9605 142.639 21.9963 142.559 22.0487C142.48 22.1011 142.412 22.1692 142.36 22.2487V22.3187C142.297 22.4263 142.263 22.5488 142.263 22.6737C142.263 22.7985 142.297 22.9211 142.36 23.0287C142.418 23.1303 142.501 23.2161 142.6 23.2787C142.71 23.3388 142.834 23.3697 142.96 23.3687H143ZM142.64 23.0887V22.1887H143.08C143.136 22.1786 143.194 22.1786 143.25 22.1887C143.293 22.2137 143.331 22.2478 143.36 22.2887C143.389 22.337 143.404 22.3923 143.404 22.4487C143.404 22.5051 143.389 22.5604 143.36 22.6087C143.333 22.655 143.29 22.6904 143.24 22.7087C143.185 22.7285 143.125 22.7285 143.07 22.7087H142.78V22.5287H143.09C143.1 22.4995 143.1 22.4678 143.09 22.4387C143.096 22.4328 143.101 22.4257 143.104 22.418C143.107 22.4103 143.109 22.402 143.109 22.3937C143.109 22.3853 143.107 22.377 143.104 22.3693C143.101 22.3616 143.096 22.3546 143.09 22.3487C143.084 22.3428 143.077 22.3381 143.069 22.3349C143.062 22.3317 143.053 22.33 143.045 22.33C143.037 22.33 143.028 22.3317 143.021 22.3349C143.013 22.3381 143.006 22.3428 143 22.3487H142.87V23.0687L142.64 23.0887ZM143.23 22.6787L143.43 23.0887H143.16L142.98 22.6787H143.23Z" fill="#D13639"/>
<path d="M73.3602 0.248657H69.1802V18.7287H73.3602V0.248657Z" fill="#D13639"/>
<path d="M93.19 9.48867C93.236 11.2752 92.8264 13.0441 92 14.6287C91.2908 15.9852 90.2036 17.1071 88.87 17.8587C87.5016 18.5871 85.9752 18.968 84.425 18.968C82.8749 18.968 81.3484 18.5871 79.98 17.8587C78.6465 17.1071 77.5593 15.9852 76.85 14.6287C76.0424 13.0351 75.647 11.2645 75.7 9.47867C75.6501 7.69202 76.0489 5.92136 76.86 4.32867C77.5745 2.97513 78.6649 1.85693 80 1.10867C81.3684 0.380278 82.8948 -0.000671387 84.445 -0.000671387C85.9952 -0.000671387 87.5216 0.380278 88.89 1.10867C90.218 1.86099 91.2985 2.98321 92 4.33867C92.8206 5.92792 93.22 7.70106 93.16 9.48867M88.91 9.48867C88.9392 8.4027 88.7522 7.32177 88.36 6.30867C88.0612 5.49851 87.52 4.80015 86.81 4.30867C86.0947 3.867 85.2707 3.63308 84.43 3.63308C83.5894 3.63308 82.7653 3.867 82.05 4.30867C81.342 4.80467 80.7987 5.50123 80.49 6.30867C79.7601 8.36584 79.7601 10.6115 80.49 12.6687C80.7926 13.4795 81.3372 14.1777 82.05 14.6687C82.7653 15.1103 83.5894 15.3443 84.43 15.3443C85.2707 15.3443 86.0947 15.1103 86.81 14.6687C87.52 14.1772 88.0612 13.4788 88.36 12.6687C88.7522 11.6556 88.9392 10.5746 88.91 9.48867" fill="#D13639"/>
<path d="M60.4002 12.2887L62.5502 18.7287H67.1302L64.7502 11.7887H61.5102L61.3102 11.1887C62.2353 11.0572 63.1236 10.7372 63.9202 10.2487C64.5717 9.80258 65.1062 9.20624 65.4787 8.51003C65.8512 7.81382 66.0506 7.03819 66.0602 6.24867V6.24867C66.0924 5.15224 65.8189 4.06847 65.2702 3.11867C64.7361 2.20605 63.9471 1.46923 63.0002 0.998667C61.8718 0.47159 60.635 0.218061 59.3902 0.258667H51.9302V18.7287H56.1102V12.2887H60.4002ZM60.3302 8.45867C59.761 8.66884 59.1566 8.76731 58.5502 8.74867H56.1102V3.63867H58.5402C59.1511 3.64307 59.7555 3.7653 60.3202 3.99867C60.7637 4.17682 61.1387 4.49219 61.3902 4.89867C61.6504 5.3143 61.7793 5.79868 61.7602 6.28867C61.7792 6.76469 61.6537 7.23532 61.4002 7.63867C61.1444 8.03444 60.7698 8.339 60.3302 8.50867" fill="#D13639"/>
<path d="M93.5801 0.248647V3.67865H100.76L100.95 4.27865C100.048 4.40904 99.181 4.71843 98.4001 5.18865V18.7286H102.53V3.66865H107.34V0.238647L93.5801 0.248647Z" fill="#D13639"/>
<path d="M150 18C150 17.2 151 17 152 17H161C161.8 17 162 17.6667 162 18V19L156 23L150 19V18Z" fill="#D13639"/>
</svg>
