<svg viewBox="0 0 17 16" fill="none"><path d="M5.697 3.035a2.584 2.584 0 0 0-2.05 1.884c-.09.35-.097.555-.087 3.27.007 2.492.009 2.55.05 2.743.23 1.037.967 1.776 2.015 2.02.136.031.31.038 1.43.044 1.16.008 1.28.006 1.31-.025.032-.03.034-.43.034-4.96 0-3.36-.006-4.94-.02-4.97-.021-.037-.057-.04-1.27-.037-.985.002-1.281.008-1.412.03zm1.874 9.164l-.843-.01c-.776-.009-.86-.013-1.014-.052a1.756 1.756 0 0 1-1.3-1.354c-.046-.21-.046-5.36-.003-5.566a1.778 1.778 0 0 1 1.073-1.281c.273-.11.4-.123 1.286-.125l.8-.002v8.39z" fill="#FCFCFC"></path><path d="M5.875 5.073c-.13.024-.33.124-.435.217-.217.188-.325.456-.308.77a.651.651 0 0 0 .085.34c.097.2.244.348.445.447.138.068.174.077.354.083.163.006.221 0 .331-.037.45-.152.72-.588.644-1.036a.951.951 0 0 0-1.116-.784zM9.407 3.016c-.008.006-.014 2.25-.014 4.988 0 4.516.002 4.973.033 4.986.056.02 1.662.012 1.861-.009a2.585 2.585 0 0 0 2.141-1.729c.13-.389.126-.285.126-3.26 0-2.376-.004-2.73-.033-2.88a2.57 2.57 0 0 0-2.107-2.08c-.145-.024-.369-.03-1.09-.03-.496 0-.91.006-.917.014zm2.211 4.51c.323.084.588.33.696.645.069.195.066.48-.002.659a1.022 1.022 0 0 1-.694.642A1.02 1.02 0 0 1 10.4 8.78a1.187 1.187 0 0 1 .008-.584 1.005 1.005 0 0 1 1.211-.67z" fill="#FCFCFC"></path></svg>