<svg width="20" height="20" viewBox="0 0 20 20" fill="none" xmlns="http://www.w3.org/2000/svg">
<path fill-rule="evenodd" clip-rule="evenodd" d="M13.4404 14.7238C12.0231 15.8746 10.2182 16.564 8.25298 16.564C3.69498 16.564 0 12.856 0 8.28198C0 3.70797 3.69498 0 8.25298 0C12.811 0 16.506 3.70797 16.506 8.28198C16.506 10.2515 15.8209 12.0604 14.6769 13.4819C16.2978 15.0653 19.0731 17.7804 19.7086 18.4181C20.5709 19.2834 19.3391 20.6432 18.3537 19.6543L13.4404 14.7238ZM15.2744 8.28201C15.2744 12.1733 12.1309 15.3279 8.25321 15.3279C4.37551 15.3279 1.23202 12.1733 1.23202 8.28201C1.23202 4.39069 4.37551 1.23615 8.25321 1.23615C12.1309 1.23615 15.2744 4.39069 15.2744 8.28201Z" fill="#FCFCFC"/>
</svg>
