<svg width="35" height="35" viewBox="0 0 35 35" fill="none" xmlns="http://www.w3.org/2000/svg">
<circle cx="17.5" cy="17.5" r="17.5" fill="#FCFCFC"/>
<path fill-rule="evenodd" clip-rule="evenodd" d="M17.5 35C27.165 35 35 27.165 35 17.5C35 7.83502 27.165 0 17.5 0C7.83502 0 0 7.83502 0 17.5C0 27.165 7.83502 35 17.5 35ZM8.3335 13.5417L19.7918 7.91667L26.6668 9.58333L25.8335 21.6667L22.2918 22.0833L21.0418 13.5417L20.6252 22.2917L17.7085 22.7083L16.4585 14.5833V22.9167L14.1668 23.3333L12.0835 16.0417L12.5002 23.5417L10.8335 23.9583L8.3335 13.5417ZM25.8335 22.5L17.7085 23.5417L18.3335 25.4167L25.2085 26.6667L25.8335 22.5Z" fill="#141212"/>
</svg>
