<svg width="35" height="35" viewBox="0 0 35 35" fill="none" xmlns="http://www.w3.org/2000/svg">
<circle cx="17.5002" cy="17.4996" r="16.6667" fill="#FCFCFC"/>
<path fill-rule="evenodd" clip-rule="evenodd" d="M17.5 34.9993C27.165 34.9993 35 27.1643 35 17.4993C35 7.83435 27.165 -0.000671387 17.5 -0.000671387C7.83502 -0.000671387 0 7.83435 0 17.4993C0 27.1643 7.83502 34.9993 17.5 34.9993ZM8.3335 13.541L19.7918 7.916L26.6668 9.58266L25.8335 21.666L22.2918 22.0827L21.0418 13.541L20.6252 22.291L17.7085 22.7077L16.4585 14.5827V22.916L14.1668 23.3327L12.0835 16.041L12.5002 23.541L10.8335 23.9577L8.3335 13.541ZM25.8335 22.4993L17.7085 23.541L18.3335 25.416L25.2085 26.666L25.8335 22.4993Z" fill="#141212"/>
</svg>
