<svg width="144" height="41" viewBox="0 0 144 41" fill="none" xmlns="http://www.w3.org/2000/svg">
<path d="M24.19 0.0793457L0 11.2793L6.03 34.2193L10.62 33.6593L9.35 19.2393L10.86 18.5693L13.46 33.3093L21.3 32.3493L19.91 16.4293L21.4 15.7593L24.26 31.9793L32.19 31.0093L30.66 13.5593L32.17 12.8893L35.3 30.6293L43.15 29.6593V4.82935L24.19 0.0793457Z" fill="#020202"/>
<path d="M24.7598 34.8693L25.1598 37.1293L43.1498 40.1293V32.6093L24.7698 34.8693H24.7598Z" fill="#020202"/>
<path d="M60.16 30.1593V33.2593H64C64.002 33.8868 63.84 34.5038 63.53 35.0493C63.2106 35.5952 62.7328 36.0312 62.16 36.2993C61.4756 36.6078 60.7305 36.7582 59.98 36.7393C59.1125 36.7732 58.256 36.5355 57.53 36.0593C56.8171 35.5636 56.2673 34.8676 55.95 34.0593C55.5539 33.0508 55.3668 31.9723 55.4 30.8893C55.3725 29.815 55.5772 28.7474 56 27.7593C56.3205 26.9501 56.8738 26.2541 57.59 25.7593C58.3037 25.2971 59.1399 25.0602 59.99 25.0793C60.436 25.0711 60.8807 25.1284 61.31 25.2493C61.6899 25.3576 62.0484 25.5301 62.37 25.7593C62.6716 25.9859 62.935 26.2594 63.15 26.5693C63.3617 26.9089 63.5265 27.2756 63.64 27.6593H67.83C67.7303 26.7811 67.4549 25.9319 67.0203 25.1622C66.5856 24.3926 66.0006 23.7182 65.3 23.1793C64.5669 22.6179 63.7458 22.182 62.87 21.8893C61.9008 21.5774 60.8881 21.4221 59.87 21.4293C58.6961 21.4199 57.5315 21.6372 56.44 22.0693C55.3926 22.4865 54.4453 23.1204 53.66 23.9293C52.8336 24.7856 52.1994 25.8084 51.8 26.9293C51.3289 28.2091 51.1016 29.5659 51.13 30.9293C51.0886 32.6614 51.4696 34.3775 52.24 35.9293C52.9379 37.2925 54.0189 38.4221 55.35 39.1793C56.692 39.9024 58.1859 40.2983 59.7099 40.3348C61.2338 40.3713 62.7449 40.0474 64.12 39.3893C65.3119 38.811 66.3119 37.9014 67 36.7693C67.7074 35.4784 68.0529 34.0204 68 32.5493V30.1593H60.16Z" fill="#020202"/>
<path d="M112.82 40.1593V21.6793H125.49V25.0993H117V29.2093H123.86V32.6293H117V36.7393H125.51V40.1593H112.82Z" fill="#020202"/>
<path d="M137.78 27.1093C137.759 26.7914 137.671 26.4815 137.521 26.2005C137.371 25.9194 137.163 25.6735 136.91 25.4793C136.281 25.062 135.534 24.8586 134.78 24.8993C134.259 24.8789 133.739 24.9604 133.25 25.1393C132.88 25.2751 132.555 25.5104 132.31 25.8193C132.093 26.1073 131.977 26.4588 131.98 26.8193C131.969 27.1028 132.038 27.3837 132.18 27.6293C132.317 27.8799 132.522 28.0876 132.77 28.2293C133.049 28.4155 133.352 28.5635 133.67 28.6693C134.042 28.8017 134.423 28.9086 134.81 28.9893L136.43 29.3593C137.226 29.5385 138.002 29.793 138.75 30.1193C139.392 30.4098 139.986 30.7977 140.51 31.2693C140.987 31.7061 141.369 32.2374 141.63 32.8293C141.959 33.6392 142.088 34.5165 142.006 35.3868C141.925 36.2572 141.634 37.095 141.16 37.8293C140.53 38.6936 139.666 39.3598 138.67 39.7493C137.428 40.2336 136.102 40.4648 134.77 40.4293C133.404 40.4625 132.045 40.2281 130.77 39.7393C129.704 39.327 128.787 38.602 128.14 37.6593C127.469 36.6316 127.121 35.4266 127.14 34.1993H131.14C131.143 34.7343 131.311 35.2553 131.621 35.6917C131.93 36.1282 132.366 36.459 132.87 36.6393C133.433 36.8591 134.036 36.9612 134.64 36.9393C135.195 36.9582 135.748 36.87 136.27 36.6793C136.685 36.5352 137.052 36.2791 137.33 35.9393C137.573 35.6267 137.709 35.2449 137.72 34.8493C137.722 34.4857 137.598 34.1325 137.37 33.8493C137.092 33.5479 136.75 33.3122 136.37 33.1593C135.825 32.9391 135.263 32.7619 134.69 32.6293L132.69 32.1593C131.331 31.882 130.063 31.2702 129 30.3793C128.543 29.9666 128.184 29.4571 127.948 28.888C127.713 28.3188 127.608 27.7044 127.64 27.0893C127.6 26.0159 127.921 24.96 128.55 24.0893C129.197 23.2064 130.071 22.5152 131.08 22.0893C132.244 21.599 133.497 21.3572 134.76 21.3793C136.014 21.3486 137.259 21.5909 138.41 22.0893C139.389 22.5184 140.231 23.2107 140.84 24.0893C141.426 24.9792 141.732 26.0239 141.72 27.0893L137.78 27.1093Z" fill="#020202"/>
<path d="M109.85 40.1593H105.71V26.1093H105.29L101.12 40.1593H96.99L92.93 26.1093H92.4V40.1593H88.27V21.6793H95.29L98.84 34.0693H99.27L102.81 21.6793H109.85V40.1593Z" fill="#020202"/>
<path d="M81.7599 40.1593H86.2399L79.9999 21.6893H74.3599L68.1499 40.1593H72.6299L73.8399 36.1593H80.5599L81.7599 40.1593ZM74.7599 32.8893L76.7599 26.1093H77.5199L79.5199 32.8893H74.7599Z" fill="#020202"/>
<path d="M143 23.6393C142.735 23.6393 142.48 23.534 142.293 23.3464C142.105 23.1589 142 22.9046 142 22.6393C142.004 22.5262 142.028 22.4146 142.07 22.3093C142.121 22.1944 142.192 22.0894 142.28 21.9993C142.369 21.9104 142.474 21.8392 142.59 21.7893C142.833 21.6893 143.107 21.6893 143.35 21.7893C143.583 21.8903 143.769 22.0762 143.87 22.3093C143.924 22.4287 143.952 22.5583 143.952 22.6893C143.952 22.8204 143.924 22.95 143.87 23.0693C143.769 23.3024 143.583 23.4883 143.35 23.5893C143.237 23.6267 143.119 23.6436 143 23.6393ZM143 23.3693C143.126 23.3691 143.249 23.3382 143.36 23.2793C143.518 23.1908 143.635 23.0437 143.686 22.8697C143.736 22.6957 143.716 22.5088 143.63 22.3493C143.567 22.2333 143.474 22.1365 143.36 22.0693C143.283 22.013 143.196 21.9729 143.104 21.9514C143.011 21.9299 142.915 21.9275 142.821 21.9444C142.728 21.9612 142.639 21.9969 142.559 22.0494C142.48 22.1018 142.412 22.1698 142.36 22.2493V22.3193C142.297 22.4269 142.263 22.5495 142.263 22.6743C142.263 22.7992 142.297 22.9217 142.36 23.0293C142.418 23.131 142.501 23.2168 142.6 23.2793C142.71 23.3394 142.834 23.3704 142.96 23.3693H143ZM142.64 23.0893V22.1893H143.08C143.136 22.1792 143.194 22.1792 143.25 22.1893C143.293 22.2144 143.331 22.2485 143.36 22.2893C143.389 22.3376 143.404 22.393 143.404 22.4493C143.404 22.5057 143.389 22.561 143.36 22.6093C143.333 22.6556 143.29 22.691 143.24 22.7093C143.185 22.7292 143.125 22.7292 143.07 22.7093H142.78V22.5293H143.09C143.1 22.5002 143.1 22.4685 143.09 22.4393C143.096 22.4334 143.101 22.4264 143.104 22.4187C143.107 22.411 143.109 22.4027 143.109 22.3943C143.109 22.386 143.107 22.3777 143.104 22.37C143.101 22.3623 143.096 22.3552 143.09 22.3493C143.084 22.3434 143.077 22.3387 143.069 22.3355C143.062 22.3323 143.053 22.3307 143.045 22.3307C143.037 22.3307 143.028 22.3323 143.021 22.3355C143.013 22.3387 143.006 22.3434 143 22.3493H142.87V23.0693L142.64 23.0893ZM143.23 22.6793L143.43 23.0893H143.16L142.98 22.6793H143.23Z" fill="#020202"/>
<path d="M73.3602 0.249329H69.1802V18.7293H73.3602V0.249329Z" fill="#020202"/>
<path d="M93.19 9.48934C93.236 11.2759 92.8264 13.0447 92 14.6293C91.2908 15.9859 90.2036 17.1078 88.87 17.8593C87.5016 18.5877 85.9752 18.9687 84.425 18.9687C82.8749 18.9687 81.3484 18.5877 79.98 17.8593C78.6465 17.1078 77.5593 15.9859 76.85 14.6293C76.0424 13.0357 75.647 11.2651 75.7 9.47934C75.6501 7.69269 76.0489 5.92203 76.86 4.32934C77.5745 2.9758 78.6649 1.8576 80 1.10934C81.3684 0.38095 82.8948 0 84.445 0C85.9952 0 87.5216 0.38095 88.89 1.10934C90.218 1.86166 91.2985 2.98388 92 4.33934C92.8206 5.92859 93.22 7.70173 93.16 9.48934M88.91 9.48934C88.9392 8.40337 88.7522 7.32244 88.36 6.30934C88.0612 5.49919 87.52 4.80082 86.81 4.30934C86.0947 3.86767 85.2707 3.63375 84.43 3.63375C83.5894 3.63375 82.7653 3.86767 82.05 4.30934C81.342 4.80534 80.7987 5.5019 80.49 6.30934C79.7601 8.36651 79.7601 10.6122 80.49 12.6693C80.7926 13.4802 81.3372 14.1784 82.05 14.6693C82.7653 15.111 83.5894 15.3449 84.43 15.3449C85.2707 15.3449 86.0947 15.111 86.81 14.6693C87.52 14.1779 88.0612 13.4795 88.36 12.6693C88.7522 11.6562 88.9392 10.5753 88.91 9.48934" fill="#020202"/>
<path d="M60.4002 12.2893L62.5502 18.7293H67.1302L64.7502 11.7893H61.5102L61.3102 11.1893C62.2353 11.0578 63.1236 10.7379 63.9202 10.2493C64.5717 9.80325 65.1062 9.20691 65.4787 8.5107C65.8512 7.81449 66.0506 7.03886 66.0602 6.24934V6.24934C66.0924 5.15291 65.8189 4.06914 65.2702 3.11934C64.7361 2.20672 63.9471 1.4699 63.0002 0.999338C61.8718 0.472261 60.635 0.218733 59.3902 0.259338H51.9302V18.7293H56.1102V12.2893H60.4002ZM60.3302 8.45934C59.761 8.66951 59.1566 8.76798 58.5502 8.74934H56.1102V3.63934H58.5402C59.1511 3.64374 59.7555 3.76598 60.3202 3.99934C60.7637 4.17749 61.1387 4.49286 61.3902 4.89934C61.6504 5.31497 61.7793 5.79935 61.7602 6.28934C61.7792 6.76536 61.6537 7.23599 61.4002 7.63934C61.1444 8.03511 60.7698 8.33968 60.3302 8.50934" fill="#020202"/>
<path d="M93.5801 0.249319V3.67932H100.76L100.95 4.27932C100.048 4.40971 99.181 4.71911 98.4001 5.18932V18.7293H102.53V3.66932H107.34V0.239319L93.5801 0.249319Z" fill="#020202"/>
</svg>
