<svg width="7" height="10" viewBox="0 0 7 10" fill="none" xmlns="http://www.w3.org/2000/svg">
<path d="M2.5 8.126C2.5 8.2915 2.56574 8.45021 2.68277 8.56723C2.79979 8.68426 2.9585 8.75 3.124 8.75C3.2895 8.75 3.44821 8.68426 3.56523 8.56723C3.68226 8.45021 3.748 8.2915 3.748 8.126C3.748 7.96051 3.68226 7.80179 3.56523 7.68477C3.44821 7.56774 3.2895 7.502 3.124 7.502C2.9585 7.502 2.79979 7.56774 2.68277 7.68477C2.56574 7.80179 2.5 7.96051 2.5 8.126V8.126ZM0 0.938V9.063C0 9.581 0.42 10.001 0.937 10.001H5.312C5.83 10.001 6.25 9.581 6.25 9.063V0.938C6.25 0.689227 6.15118 0.450643 5.97527 0.274734C5.79936 0.0988247 5.56077 0 5.312 0H0.937C0.6884 0.000265032 0.450073 0.0992067 0.27438 0.275087C0.0986873 0.450968 -1.41275e-07 0.6894 0 0.938V0.938ZM0.937 8.946V1.056C0.937 0.991 0.99 0.938 1.054 0.938H5.194C5.259 0.938 5.312 0.991 5.312 1.055V8.945C5.31213 8.96045 5.3092 8.97577 5.30338 8.99008C5.29756 9.00439 5.28896 9.01741 5.27809 9.02838C5.26721 9.03935 5.25427 9.04806 5.24001 9.054C5.22575 9.05994 5.21045 9.063 5.195 9.063H1.055C1.02388 9.063 0.994014 9.05071 0.971913 9.02879C0.949812 9.00688 0.937264 8.97712 0.937 8.946V8.946Z" fill="#FCFCFC"/>
</svg>
