<svg id="Layer_1" data-name="Layer 1" xmlns="http://www.w3.org/2000/svg" viewBox="0 0 54 53"><defs><style>.cls-1{fill:#f1f0f0;}</style></defs><path class="cls-1" d="M1066.48,483.38l.27,17.45,6.41-5.29-9.52,32.36-3.29-20.53-4.14,3.46-3.76-18.37Zm1,42.78,21.1-18.92-10.81-4.61Zm-7.28,0-9.81-22.57-9.63,6.12Zm9,2,20.91-4.75h0l-6.87-5.64Zm-29.14-4.77,18,4.77L1045.42,519Zm6.09,9.24-.19,3.73h-1.4l.39-3.73Zm5.35,2.87.09-2-2.46,0-.12,2Zm1.26-2.87,0,3.73h-5.2l.45-3.73Zm-13.25,2,2.39-.47-.11-.69-2.24.09Zm3.3-2,.45,2-.89.21,1,1.54H1042l-.68-1.3-1.73.39,0,.91h-1.39l.39-3.73Zm11.17,0,0,1,1.79,0-.17,2.77h1.4l0-2.8,1.75,0,0-.89Zm17.88,2.87-.15-2.06-2.35,0-.06,2Zm1-2.87.33,3.73h-5.2l.18-3.73Zm14.53,0,.19,3.73h4.5l-.09-.82-3.08-.07-.06-.59,2.24,0,0-.74-2.33,0-.06-.62,3.12-.07-.08-.76Zm-6.28,0,.11,3.73h4.91l-.29-2.3-2.3.07,0,.69,1.23,0,0,.65-2.31,0-.18-2,3.39-.09-.1-.77Zm-19,0-.06,3.73h1.43l0-1.2,2.62-.07v-.77l-2.63,0,0-.74,3.3-.07v-.85Zm13.84,2,2.45-.47-.2-.71-2.35.08Zm3.26-2,.55,2-.89.2,1.11,1.54h-1.43l-.81-1.3-1.71.38.08.92h-1.39l-.09-3.73Z" transform="translate(-1038.15 -483.38)"/></svg>