<svg width="35" height="35" viewBox="0 0 35 35" fill="none" xmlns="http://www.w3.org/2000/svg">
<circle cx="17.5" cy="17.5" r="17.5" fill="#141212"/>
<path fill-rule="evenodd" clip-rule="evenodd" d="M17.5 35C27.165 35 35 27.165 35 17.5C35 7.83502 27.165 0 17.5 0C7.83502 0 0 7.83502 0 17.5C0 27.165 7.83502 35 17.5 35ZM8.33325 13.5417L19.7916 7.91667L26.6666 9.58333L25.8333 21.6667L22.2916 22.0833L21.0416 13.5417L20.6249 22.2917L17.7083 22.7083L16.4583 14.5833V22.9167L14.1666 23.3333L12.0833 16.0417L12.4999 23.5417L10.8333 23.9583L8.33325 13.5417ZM25.8333 22.5L17.7083 23.5417L18.3333 25.4167L25.2083 26.6667L25.8333 22.5Z" fill="#F1F5F1"/>
</svg>
