<svg viewBox="0 0 17 16" fill="none"><path d="M14.15 11.2s.632-.227.89-.546c.258-.32.144-.783-.872-1.098-.9-.335-2.049-.45-2.986-.349-.937.102-1.604.333-1.604.333l-.133.044v1.269l2.307-.797c.393-.139.97-.168 1.29-.065.319.102.258.297-.135.435l-3.462 1.21v1.222L14.15 11.2z" fill="#FCFCFC"></path><path d="M9.893 5.448v3.125c1.342.635 2.397 0 2.397-1.678 0-1.72-.617-2.484-2.44-3.098C9.133 3.56 7.8 3.167 6.885 3v9.33l2.152.67V5.175c0-.367.167-.612.436-.527.35.095.42.433.42.8zM2.194 10.275c-.475.345-.301.945.741 1.233a7.115 7.115 0 0 0 3.319.262l.212-.035v-1.098l-1.065.38c-.393.138-.97.167-1.29.065-.318-.103-.258-.298.135-.436l2.22-.78V8.64L3.38 9.716s-.746.24-1.186.559z" fill="#FCFCFC"></path></svg>