<svg viewBox="0 0 17 16" fill="none"><path d="M8.345 13.975a5.99 5.99 0 0 1-2.664-.944c-.674-.44-.826-.62-.826-.98 0-.724.796-1.992 2.159-3.438.774-.82 1.852-1.783 1.968-1.757.227.051 2.039 1.817 2.717 2.649 1.072 1.315 1.566 2.391 1.315 2.871-.19.365-1.372 1.078-2.24 1.352a6.587 6.587 0 0 1-2.429.247zm-4.4-2.677c-.56-.858-.842-1.703-.979-2.926-.045-.403-.029-.634.102-1.462.164-1.033.752-2.227 1.46-2.962.3-.313.327-.32.694-.197.446.15.922.478 1.66 1.145l.43.39-.235.288C5.986 6.914 4.833 8.814 4.4 9.99c-.236.639-.331 1.28-.23 1.547.069.18.006.113-.224-.24zm9.826.146c.056-.27-.014-.765-.178-1.265-.355-1.083-1.542-3.096-2.631-4.465l-.344-.431.372-.34c.484-.446.82-.712 1.184-.938.286-.178.696-.336.871-.336.109 0 .49.396.8.828a6.28 6.28 0 0 1 1.006 2.326c.115.546.124 1.715.018 2.26a7.114 7.114 0 0 1-.45 1.42c-.134.294-.468.866-.614 1.052-.076.096-.076.095-.034-.111zm-5.327-7.98c-.503-.255-1.278-.529-1.707-.603a3.13 3.13 0 0 0-.57-.032c-.353.018-.337 0 .23-.268a5.834 5.834 0 0 1 1.399-.466c.6-.126 1.73-.127 2.32-.003.639.135 1.39.414 1.814.675l.126.077-.29-.014c-.573-.03-1.41.203-2.308.64-.27.131-.506.236-.523.233a9.183 9.183 0 0 1-.491-.239z" fill="#FCFCFC"></path></svg>